<svg width="64" height="64" viewBox="0 0 64 64" fill="none" xmlns="http://www.w3.org/2000/svg">
  <defs>
    <linearGradient id="candyGradient" x1="0" y1="0" x2="64" y2="64" gradientUnits="userSpaceOnUse">
      <stop stop-color="#ec4899" />
      <stop offset="0.5" stop-color="#fbbf24" />
      <stop offset="1" stop-color="#a855f7" />
    </linearGradient>
  </defs>
  <rect width="64" height="64" rx="16" fill="url(#candyGradient)" />
  <path
    d="M18 32c0-7.732 6.268-14 14-14 5.732 0 10.666 3.432 12.84 8.364a2 2 0 0 1-1.145 2.68l-3.422 1.184c-.868.3-1.432 1.122-1.372 2.036.116 1.824.416 3.794 1.048 5.252.52 1.212 2.028 1.712 3.234 1.12l2.828-1.383a2 2 0 0 1 2.707.958A14 14 0 1 1 18 32Z"
    fill="rgba(255,255,255,0.88)"
  />
  <text x="32" y="38" text-anchor="middle" font-family="'VT323', monospace" font-size="18" fill="#0f172a">
    FHE
  </text>
</svg>
